Coordinates
version=1
nRows=24
nColumns=22
inDegrees=yes

Units are S.I. units (second, meters, Newtons, ...)
If the header above contains a line with 'inDegrees', this indicates whether rotational values are in degrees (yes) or radians (no).

endheader
time	pelvis_tilt	pelvis_list	pelvis_rotation	pelvis_tx	pelvis_ty	pelvis_tz	hip_flexion_r	hip_adduction_r	hip_rotation_r	knee_angle_r	ankle_angle_r	subtalar_angle_r	hip_flexion_l	hip_adduction_l	hip_rotation_l	knee_angle_l	ankle_angle_l	subtalar_angle_l	lumbar_extension	lumbar_bending	lumbar_rotation
      1.38000000	     -8.20906929	      3.17167245	    -42.27106546	     -1.42934050	      0.87111533	     -0.26807533	     10.68644867	      2.96956732	      5.12308139	    -18.71082025	     21.60262755	     -5.00734203	     16.33133988	    -11.46319506	     -7.63641694	    -36.47238932	     18.40548447	      7.38891815	     -0.24721046	      1.83250660	     13.53527247
      1.39000000	     -7.97464986	      3.05731792	    -42.26278446	     -1.42881634	      0.87112752	     -0.26561160	     10.24196055	      2.99744223	      5.13930575	    -18.67925562	     21.80272480	     -5.11571451	     17.55862504	    -11.65356939	     -7.15191900	    -39.31946315	     17.38822624	      7.41318730	     -0.67952592	      1.80664540	     13.70431714
      1.40000000	     -7.74122946	      2.96905486	    -42.23559182	     -1.42821473	      0.87121612	     -0.26320237	      9.78420106	      2.98970952	      5.11063174	    -18.58788285	     21.97023366	     -5.19828929	     18.90567143	    -11.80167106	     -6.63105418	    -42.25507472	     16.20719708	      7.33256179	     -1.10141155	      1.75468333	     13.88111727
      1.41000000	     -7.52998109	      2.91678263	    -42.21182057	     -1.42755266	      0.87132082	     -0.26081360	      9.35100071	      2.95911779	      5.05435992	    -18.46405571	     22.14184923	     -5.28091207	     20.36862667	    -11.91833799	     -6.10905206	    -45.22187330	     14.93411117	      7.07809829	     -1.48375273	      1.68227537	     14.10153250
      1.42000000	     -7.31054865	      2.83766815	    -42.16584362	     -1.42669900	      0.87156409	     -0.25843023	      8.81157345	      2.92268912	      4.95456150	    -18.20130166	     22.23566061	     -5.28715779	     21.83915631	    -12.00807150	     -5.55387821	    -48.12621448	     13.65148872	      6.78035671	     -1.89097840	      1.62477439	     14.32178473
      1.43000000	     -7.11162649	      2.78458622	    -42.14941413	     -1.42573749	      0.87180155	     -0.25600028	      8.28808915	      2.87423606	      4.86642688	    -17.91414338	     22.32372978	     -5.27738507	     23.34607312	    -12.09042781	     -5.09207996	    -50.92612366	     12.46270678	      6.31612741	     -2.25739601	      1.55769515	     14.56541952
      1.44000000	     -6.90603413	      2.72735907	    -42.16107467	     -1.42459454	      0.87212229	     -0.25350617	      7.70115424	      2.81265230	      4.78930273	    -17.53715273	     22.36766973	     -5.23462560	     24.79763900	    -12.15368620	     -4.69683594	    -53.52641142	     11.44566143	      5.79971266	     -2.62432945	      1.48567250	     14.86650116
      1.45000000	     -6.69217909	      2.67512493	    -42.20972847	     -1.42325810	      0.87249699	     -0.25092192	      7.06911366	      2.73321324	      4.75020041	    -17.10222909	     22.38168832	     -5.16314038	     26.17380535	    -12.20928828	     -4.41972265	    -55.88513900	     10.67281015	      5.25902823	     -2.98047004	      1.40169784	     15.21038732
      1.46000000	     -6.47540430	      2.63368737	    -42.30981208	     -1.42177604	      0.87292087	     -0.24822379	      6.40293981	      2.63834900	      4.75025397	    -16.60528234	     22.35659444	     -5.06977470	     27.46010259	    -12.27173521	     -4.27932783	    -57.95582174	     10.16547469	      4.74960014	     -3.32351869	      1.29727520	     15.60324446
      1.47000000	     -6.25149644	      2.62663284	    -42.45838000	     -1.42015950	      0.87335460	     -0.24545289	      5.74423589	      2.50671869	      4.81640227	    -16.10242863	     22.35192465	     -4.94936885	     28.66307146	    -12.31483297	     -4.26896296	    -59.71330289	      9.90249209	      4.14401323	     -3.63890376	      1.15293991	     16.04285330
      1.48000000	     -6.02627633	      2.64845123	    -42.66952610	     -1.41841510	      0.87381981	     -0.24254553	      5.07815074	      2.34773567	      4.94111133	    -15.55835689	     22.27027165	     -4.84026281	     29.76666458	    -12.37379270	     -4.41847704	    -61.13132752	      9.78721928	      3.76517454	     -3.91941040	      0.97258085	     16.54867928
      1.49000000	     -5.80923240	      2.71780753	    -42.90682220	     -1.41652488	      0.87423117	     -0.23957105	      4.44757392	      2.14738760	      5.07533097	    -15.01963965	     22.26893192	     -4.67733525	     30.80780216	    -12.42294329	     -4.69342519	    -62.21521833	      9.86977461	      3.11326198	     -4.14643789	      0.75452791	     17.03412341
      1.50000000	     -5.59872616	      2.83781859	    -43.18136992	     -1.41452643	      0.87462893	     -0.23652162	      3.84951841	      1.90562301	      5.25271123	    -14.46781308	     22.20378232	     -4.52600140	     31.77948761	    -12.45124359	     -5.05490303	    -62.94356682	      9.97621184	      2.65119741	     -4.32003511	      0.49062059	     17.56045988
      1.51000000	     -5.42001573	      2.98825820	    -43.49085467	     -1.41243781	      0.87495257	     -0.23339552	      3.30272519	      1.65888783	      5.46846286	    -13.92837125	     22.12422105	     -4.40570021	     32.70226206	    -12.50472004	     -5.49314903	    -63.34441340	     10.10814691	      2.38089104	     -4.43646972	      0.22069017	     18.10505819
      1.52000000	     -5.24790822	      3.17261472	    -43.80099779	     -1.41020463	      0.87521454	     -0.23022021	      2.78322878	      1.38023317	      5.67303927	    -13.39702976	     22.06445911	     -4.25648602	     33.56108348	    -12.52402223	     -5.94483905	    -63.41204945	     10.23220964	      2.05758890	     -4.51008769	     -0.07830326	     18.62414183
      1.53000000	     -5.08695674	      3.37224553	    -44.09760171	     -1.40779779	      0.87539516	     -0.22706119	      2.28621087	      1.08319667	      5.85417174	    -12.88226438	     22.03449786	     -4.07584904	     34.36014562	    -12.51529122	     -6.38274930	    -63.17058669	     10.31998509	      1.73477873	     -4.55692039	     -0.37451658	     19.11552010
      1.54000000	     -4.95185868	      3.57415683	    -44.36727663	     -1.40522454	      0.87547095	     -0.22390502	      1.81131439	      0.79247635	      5.98890285	    -12.38188036	     22.01472901	     -3.88382230	     35.11043090	    -12.48724501	     -6.76312898	    -62.63904744	     10.35398021	      1.48779281	     -4.57731434	     -0.65150314	     19.56140099
      1.55000000	     -4.82439371	      3.76446724	    -44.60933982	     -1.40245833	      0.87543727	     -0.22076845	      1.32768594	      0.50253511	      6.09173395	    -11.88801921	     22.03443505	     -3.64894798	     35.79325190	    -12.43840903	     -7.08803624	    -61.84747549	     10.34581508	      1.28376212	     -4.59909034	     -0.90549918	     19.94755351
      1.56000000	     -4.71731965	      3.93134861	    -44.81617649	     -1.39949957	      0.87529034	     -0.21765925	      0.84095545	      0.23474958	      6.15487516	    -11.41095596	     22.05252980	     -3.40572328	     36.41102083	    -12.37058738	     -7.31353487	    -60.80440034	     10.28684677	      1.16521276	     -4.62256942	     -1.12025492	     20.29337793
      1.57000000	     -4.62354788	      4.06601561	    -44.98811525	     -1.39633785	      0.87502925	     -0.21456663	      0.33907976	     -0.00698541	      6.18996872	    -10.95668665	     22.08037897	     -3.17365569	     36.95275781	    -12.29308279	     -7.45219376	    -59.53444982	     10.18847127	      1.11697405	     -4.66099736	     -1.29459643	     20.59106868
      1.58000000	     -4.52221503	      4.15982559	    -45.13749986	     -1.39294899	      0.87466614	     -0.21146523	     -0.21536692	     -0.23595340	      6.19472336	    -10.49944289	     22.15626894	     -2.90882680	     37.39140339	    -12.20794421	     -7.52059249	    -58.06483617	     10.07905324	      1.11167210	     -4.73629418	     -1.43748577	     20.83517005
      1.59000000	     -4.43015526	      4.21369102	    -45.25796535	     -1.38934736	      0.87418961	     -0.20837601	     -0.79559363	     -0.43414918	      6.18838892	    -10.06823861	     22.25139610	     -2.65208855	     37.74570171	    -12.11982776	     -7.50771092	    -56.41075550	      9.95630192	      1.14305201	     -4.83663850	     -1.53720843	     21.03753194
      1.60000000	     -4.34140903	      4.23168884	    -45.36285781	     -1.38554242	      0.87360434	     -0.20528402	     -1.40300512	     -0.60989950	      6.17263601	     -9.65700134	     22.36890369	     -2.41010683	     38.01147738	    -12.03511793	     -7.43430706	    -54.59728743	      9.82195599	      1.19426658	     -4.96216575	     -1.60172379	     21.20875601
      1.61000000	     -4.26515337	      4.22753550	    -45.44926166	     -1.38152800	      0.87289546	     -0.20219026	     -2.01992188	     -0.76634719	      6.14020320	     -9.26865726	     22.47740055	     -2.21399962	     38.21016724	    -11.95525260	     -7.31559318	    -52.64690111	      9.66044217	      1.24336302	     -5.09261665	     -1.63544185	     21.35328545
